<?xml version="1.0" standalone="no"?>
<!DOCTYPE svg PUBLIC "-//W3C//DTD SVG 20010904//EN"
 "http://www.w3.org/TR/2001/REC-SVG-20010904/DTD/svg10.dtd">
<svg version="1.0" xmlns="http://www.w3.org/2000/svg"
 width="300.000000pt" height="233.000000pt" viewBox="0 0 300.000000 233.000000"
 preserveAspectRatio="xMidYMid meet">
<metadata>
Created by potrace 1.10, written by Peter Selinger 2001-2011
</metadata>
<g transform="translate(0.000000,233.000000) scale(0.100000,-0.100000)"
fill="#000000" stroke="none">
<path d="M1320 2065 c-347 -70 -617 -327 -712 -676 -32 -120 -32 -328 0 -448
96 -356 379 -617 736 -680 77 -14 235 -14 312 0 357 63 639 324 736 680 32
119 32 327 -1 448 -95 356 -377 617 -735 680 -80 15 -256 12 -336 -4z m355
-29 c167 -36 323 -120 444 -236 119 -115 212 -279 247 -435 25 -107 25 -314 1
-405 -60 -227 -183 -401 -372 -529 -146 -100 -277 -141 -465 -148 -115 -4
-147 -2 -220 16 -47 12 -92 23 -102 25 -34 9 -136 62 -203 107 -100 67 -186
152 -240 238 -6 9 -22 34 -37 56 -35 55 -63 124 -90 220 -18 66 -22 106 -22
225 0 131 3 154 28 235 101 327 341 550 676 629 73 18 280 19 355 2z"/>
<path d="M1354 1830 c-12 -4 -24 -16 -28 -25 -3 -9 -6 -259 -7 -556 0 -479 1
-543 15 -565 16 -24 19 -24 159 -24 113 0 147 3 165 16 l22 15 0 559 0 559
-22 15 c-18 13 -50 16 -153 15 -71 0 -139 -4 -151 -9z m296 -580 l0 -555 -150
0 -150 0 0 548 c0 301 0 552 0 557 0 7 52 10 150 8 l150 -3 0 -555z"/>
<path d="M1790 1381 c-48 -14 -50 -32 -48 -373 3 -304 4 -318 23 -332 16 -12
51 -15 162 -16 l142 0 21 27 c20 26 21 34 18 345 -3 289 -5 319 -21 335 -15
15 -38 18 -145 20 -70 1 -138 -2 -152 -6z m288 -358 l2 -333 -155 0 -155 0 0
328 c0 181 3 332 7 336 4 3 72 5 152 4 l146 -3 3 -332z"/>
<path d="M915 1005 c-24 -23 -25 -29 -25 -158 0 -121 2 -137 21 -161 20 -26
21 -26 164 -26 143 0 144 0 164 26 19 24 21 40 21 164 0 184 4 180 -184 180
-132 0 -138 -1 -161 -25z m315 -160 l0 -155 -155 0 -155 0 0 155 0 155 155 0
155 0 0 -155z"/>
</g>
</svg>
