<?xml version="1.0" standalone="no"?>
<!DOCTYPE svg PUBLIC "-//W3C//DTD SVG 20010904//EN"
 "http://www.w3.org/TR/2001/REC-SVG-20010904/DTD/svg10.dtd">
<svg version="1.0" xmlns="http://www.w3.org/2000/svg"
 width="200.000000pt" height="200.000000pt" viewBox="0 0 200.000000 200.000000"
 preserveAspectRatio="xMidYMid meet">
<metadata>
Created by potrace 1.10, written by Peter Selinger 2001-2011
</metadata>
<g transform="translate(0.000000,200.000000) scale(0.100000,-0.100000)"
fill="#000000" stroke="none">
<path d="M220 1780 c-20 -20 -20 -33 -20 -580 0 -547 0 -560 20 -580 19 -19
33 -20 341 -20 282 0 320 -2 315 -15 -3 -8 -11 -53 -18 -100 l-12 -85 -180 -2
-181 -3 0 -95 0 -95 515 0 515 0 0 95 0 95 -181 3 -180 2 -12 85 c-7 47 -15
92 -18 100 -5 13 33 15 315 15 308 0 322 1 341 20 20 20 20 33 20 580 0 547 0
560 -20 580 -20 20 -33 20 -780 20 -747 0 -760 0 -780 -20z m1538 -502 l2
-478 -760 0 -760 0 0 473 c0 261 3 477 7 480 3 4 344 6 757 5 l751 -3 3 -477z
m0 -575 l-3 -58 -755 0 -755 0 -3 58 -3 57 761 0 761 0 -3 -57z m-660 -188 c7
-47 15 -92 18 -100 5 -13 -11 -15 -116 -15 -105 0 -121 2 -116 15 3 8 11 53
18 100 l12 85 86 0 86 0 12 -85z m382 -215 l0 -60 -480 0 -480 0 0 60 0 60
480 0 480 0 0 -60z"/>
<path d="M444 1587 c-3 -8 -4 -43 -2 -78 l3 -64 75 0 75 0 0 75 0 75 -73 3
c-55 2 -74 -1 -78 -11z m116 -67 c0 -40 0 -40 -40 -40 -40 0 -40 0 -40 40 0
40 0 40 40 40 40 0 40 0 40 -40z"/>
<path d="M825 1589 c-4 -6 -3 -15 2 -20 5 -5 162 -8 379 -7 320 3 369 5 369
18 0 13 -49 15 -372 18 -262 1 -374 -1 -378 -9z"/>
<path d="M825 1469 c-4 -6 -3 -15 2 -20 5 -5 130 -8 299 -7 249 3 289 5 289
18 0 13 -40 15 -292 18 -204 2 -294 -1 -298 -9z"/>
<path d="M549 1308 c-24 -29 -44 -55 -46 -57 -2 -3 -16 8 -31 22 -30 29 -52
35 -52 14 0 -15 71 -87 85 -86 14 0 115 129 115 145 0 28 -30 12 -71 -38z"/>
<path d="M825 1349 c-4 -6 -3 -15 2 -20 5 -5 162 -8 379 -7 320 3 369 5 369
18 0 13 -49 15 -372 18 -262 1 -374 -1 -378 -9z"/>
<path d="M825 1229 c-4 -6 -3 -15 2 -20 5 -5 130 -8 299 -7 249 3 289 5 289
18 0 13 -40 15 -292 18 -204 2 -294 -1 -298 -9z"/>
<path d="M444 1107 c-3 -8 -4 -43 -2 -78 l3 -64 75 0 75 0 0 75 0 75 -73 3
c-55 2 -74 -1 -78 -11z m116 -67 c0 -40 0 -40 -40 -40 -40 0 -40 0 -40 40 0
40 0 40 40 40 40 0 40 0 40 -40z"/>
<path d="M825 1109 c-4 -6 -3 -15 2 -20 5 -5 162 -8 379 -7 320 3 369 5 369
18 0 13 -49 15 -372 18 -262 1 -374 -1 -378 -9z"/>
<path d="M825 989 c-4 -6 -3 -15 2 -20 5 -5 130 -8 299 -7 249 3 289 5 289 18
0 13 -40 15 -292 18 -204 2 -294 -1 -298 -9z"/>
<path d="M935 710 c-13 -21 12 -31 71 -28 44 2 59 7 59 18 0 19 -119 28 -130
10z"/>
</g>
</svg>
